<?xml version="1.0" encoding="utf-8"?>
<svg xmlns="http://www.w3.org/2000/svg" fill="none" height="100%" overflow="visible" preserveAspectRatio="none" style="display: block;" viewBox="0 0 52.6407 13.7009" width="100%">
<g id="Vector">
<path d="M38.7078 0.0445305L31.9043 0.0247816V0.321015L38.7078 0.340764V0.0445305ZM31.9043 0.034656C31.8253 0.034656 31.7562 0.103777 31.7562 0.182773C31.7562 0.261768 31.8253 0.330889 31.9043 0.330889V0.034656ZM38.7078 0.350638C38.7868 0.350638 38.8559 0.281517 38.8559 0.202522C38.8559 0.123526 38.7868 0.0544049 38.7078 0.0544049V0.350638Z" fill="var(--fill-0, black)"/>
<path d="M34.8667 13.3652L28.0632 13.3454V13.6416L34.8667 13.6614V13.3652ZM28.0632 13.3454C27.9842 13.3454 27.9151 13.4145 27.9151 13.4935C27.9151 13.5725 27.9842 13.6416 28.0632 13.6416V13.3454ZM34.8667 13.6614C34.9457 13.6614 35.0148 13.5923 35.0148 13.5133C35.0148 13.4343 34.9457 13.3652 34.8667 13.3652V13.6614Z" fill="var(--fill-0, black)"/>
<path d="M39.9322 0.153149C39.2805 2.3749 38.6288 4.58677 37.9771 6.80852C37.3254 9.03027 36.6737 11.2421 36.022 13.4639L36.3182 13.5429C36.9699 11.3211 37.6216 9.10927 38.2733 6.88752C38.9251 4.66577 39.5768 2.45389 40.2285 0.232145L39.9322 0.153149ZM36.022 13.4639C36.0022 13.5429 36.0417 13.6219 36.1207 13.6515C36.1997 13.6713 36.2787 13.6318 36.3083 13.5528L36.0121 13.4738L36.022 13.4639ZM40.2285 0.242019C40.2482 0.163024 40.2087 0.0840282 40.1297 0.0544049C40.0507 0.034656 39.9717 0.0741538 39.9421 0.153149L40.2384 0.232145L40.2285 0.242019Z" fill="var(--fill-0, black)"/>
<path d="M30.5515 0.113652C29.8998 2.3354 29.2481 4.54728 28.5964 6.76903C27.9447 8.99078 27.293 11.2027 26.6412 13.4244L26.9375 13.5034C27.5892 11.2816 28.2409 9.06977 28.8926 6.84802C29.5443 4.62627 30.196 2.4144 30.8478 0.192647L30.5515 0.113652ZM26.6412 13.4145C26.6215 13.4935 26.661 13.5725 26.74 13.6021C26.819 13.6219 26.898 13.5824 26.9276 13.5034L26.6314 13.4244L26.6412 13.4145ZM30.8379 0.192647C30.8576 0.113652 30.8181 0.034656 30.7391 0.00503269C30.6601 -0.0147162 30.5811 0.0247816 30.5515 0.103777L30.8478 0.182773L30.8379 0.192647Z" fill="var(--fill-0, black)"/>
<path d="M0.8887 13.6219C2.34024 13.6219 3.79179 13.6219 5.24333 13.6219C6.69487 13.6219 8.14642 13.6219 9.59796 13.6219V13.3257C8.14642 13.3257 6.69487 13.3257 5.24333 13.3257C3.79179 13.3257 2.34024 13.3257 0.8887 13.3257V13.6219ZM9.59796 13.6318C9.67695 13.6318 9.74607 13.5626 9.74607 13.4836C9.74607 13.4047 9.67695 13.3355 9.59796 13.3355V13.6318ZM0.8887 13.3257C0.809704 13.3257 0.740583 13.3948 0.740583 13.4738C0.740583 13.5528 0.809704 13.6219 0.8887 13.6219V13.3257Z" fill="var(--fill-0, black)"/>
<path d="M4.06827 0.202522L3.92015 0.163024C3.26844 2.3749 2.61673 4.58677 1.96501 6.80852C1.3133 9.01052 0.671462 11.2224 0.00987444 13.4343L0.306108 13.5133C0.957821 11.3014 1.60953 9.08952 2.26125 6.86777C2.91296 4.65589 3.56467 2.44402 4.21639 0.22227L4.06827 0.182773V0.202522ZM0.00987444 13.4343C-0.00987444 13.5133 0.0296233 13.5923 0.108619 13.6219C0.187614 13.6416 0.26661 13.6021 0.296233 13.5231L0 13.4441L0.00987444 13.4343ZM4.20651 0.242019C4.22626 0.163024 4.18676 0.0840282 4.10777 0.0544049C4.02877 0.0247816 3.94978 0.0741538 3.92015 0.153149L4.21639 0.232145L4.20651 0.242019Z" fill="var(--fill-0, black)"/>
<path d="M4.75948 0.350638C6.21102 0.350638 7.66257 0.350638 9.11411 0.350638C10.5657 0.350638 12.0172 0.350638 13.4687 0.350638V0.0544049C12.0172 0.0544049 10.5657 0.0544049 9.11411 0.0544049C7.66257 0.0544049 6.21102 0.0544049 4.75948 0.0544049V0.350638ZM13.4687 0.350638C13.5477 0.350638 13.6169 0.281517 13.6169 0.202522C13.6169 0.123526 13.5477 0.0544049 13.4687 0.0544049V0.350638ZM4.75948 0.0445305C4.68049 0.0445305 4.61136 0.113652 4.61136 0.192647C4.61136 0.271643 4.68049 0.340764 4.75948 0.340764V0.0445305Z" fill="var(--fill-0, black)"/>
<path d="M9.98306 12.6739C10.5459 10.7484 11.1087 8.82291 11.6716 6.89739L11.3754 6.8184C10.8125 8.74391 10.2497 10.6694 9.68683 12.5949L9.98306 12.6739ZM11.6716 6.89739C11.6913 6.8184 11.6518 6.7394 11.5728 6.70978C11.4939 6.69003 11.4149 6.72953 11.3852 6.80852L11.6815 6.88752L11.6716 6.89739ZM9.6967 12.5949C9.67695 12.6739 9.71645 12.7529 9.79545 12.7826C9.87444 12.8023 9.95344 12.7628 9.98306 12.6838L9.68683 12.6048L9.6967 12.5949Z" fill="var(--fill-0, black)"/>
<path d="M3.41656 7.00601H10.22V6.70978H3.41656V7.00601ZM10.22 7.00601C10.299 7.00601 10.3682 6.93689 10.3682 6.8579C10.3682 6.7789 10.299 6.70978 10.22 6.70978V7.00601ZM3.41656 6.70978C3.33756 6.70978 3.26844 6.7789 3.26844 6.8579C3.26844 6.93689 3.33756 7.00601 3.41656 7.00601V6.70978Z" fill="var(--fill-0, black)"/>
<path d="M26.4141 0.0642793C25.0613 0.0642793 23.7085 0.0642793 22.3557 0.0642793C21.0029 0.0642793 19.6501 0.0642793 18.2973 0.0642793V0.360513C19.6501 0.360513 21.0029 0.360513 22.3557 0.360513C23.7085 0.360513 25.0613 0.360513 26.4141 0.360513V0.0642793ZM18.2973 0.0642793C18.2183 0.0642793 18.1492 0.1334 18.1492 0.212396C18.1492 0.291392 18.2183 0.360513 18.2973 0.360513V0.0642793ZM26.4141 0.360513C26.4931 0.360513 26.5623 0.291392 26.5623 0.212396C26.5623 0.1334 26.4931 0.0642793 26.4141 0.0642793V0.360513Z" fill="var(--fill-0, black)"/>
<path d="M22.5137 13.3454C19.8081 13.3454 17.1025 13.3454 14.3969 13.3454V13.6416C17.1025 13.6416 19.8081 13.6416 22.5137 13.6416V13.3454ZM14.3969 13.3454C14.3179 13.3454 14.2488 13.4145 14.2488 13.4935C14.2488 13.5725 14.3179 13.6416 14.3969 13.6416V13.3454ZM22.5137 13.6416C22.5927 13.6416 22.6618 13.5725 22.6618 13.4935C22.6618 13.4145 22.5927 13.3454 22.5137 13.3454V13.6416Z" fill="var(--fill-0, black)"/>
<path d="M24.459 6.7394L17.6555 6.71965V7.01589L24.459 7.03564V6.7394ZM17.6555 6.71965C17.5765 6.71965 17.5074 6.78877 17.5074 6.86777C17.5074 6.94677 17.5765 7.01589 17.6555 7.01589V6.71965ZM24.459 7.04551C24.538 7.04551 24.6071 6.97639 24.6071 6.89739C24.6071 6.8184 24.538 6.74928 24.459 6.74928V7.04551Z" fill="var(--fill-0, black)"/>
<path d="M27.5497 0.172898C26.898 2.38477 26.2463 4.59665 25.5946 6.8184C24.9428 9.03027 24.2911 11.2421 23.6394 13.4639L23.9356 13.5429C24.5874 11.331 25.2391 9.11914 25.8908 6.89739C26.5425 4.68552 27.1942 2.47364 27.8459 0.251894L27.5497 0.172898ZM23.6493 13.454C23.6295 13.533 23.669 13.612 23.748 13.6416C23.827 13.6713 23.906 13.6219 23.9356 13.5429L23.6394 13.4639L23.6493 13.454ZM27.8459 0.261768C27.8657 0.182773 27.8262 0.103777 27.7472 0.0741538C27.6682 0.0544049 27.5892 0.0939027 27.5596 0.172898L27.8558 0.251894L27.8459 0.261768Z" fill="var(--fill-0, black)"/>
<path d="M52.4925 0.251894V0.0939027C49.3623 0.0939027 46.2223 0.0939027 43.0921 0.0939027V0.390136C46.2223 0.390136 49.3623 0.390136 52.4925 0.390136V0.242019V0.251894ZM43.0921 0.0939027C43.0131 0.0939027 42.9439 0.163024 42.9439 0.242019C42.9439 0.321015 43.0131 0.390136 43.0921 0.390136V0.0939027ZM52.4925 0.40001C52.5715 0.40001 52.6407 0.330889 52.6407 0.251894C52.6407 0.172898 52.5715 0.103777 52.4925 0.103777V0.40001Z" fill="var(--fill-0, black)"/>
<path d="M49.2932 6.76903L42.4897 6.74928V7.04551L49.2932 7.06526V6.76903ZM42.4897 6.75915C42.4107 6.75915 42.3416 6.82827 42.3416 6.90727C42.3416 6.98626 42.4107 7.05538 42.4897 7.05538V6.75915ZM49.2932 7.06526C49.3722 7.06526 49.4413 6.99614 49.4413 6.91714C49.4413 6.83815 49.3722 6.76903 49.2932 6.76903V7.06526Z" fill="var(--fill-0, black)"/>
<path d="M48.5921 13.375L39.2015 13.3553V13.6713L48.5921 13.691V13.375ZM39.2015 13.3553C39.1127 13.3553 39.0435 13.4244 39.0435 13.5133C39.0435 13.6021 39.1127 13.6713 39.2015 13.6713V13.3553ZM48.5921 13.7009C48.681 13.7009 48.7501 13.6318 48.7501 13.5429C48.7501 13.454 48.681 13.3849 48.5921 13.3849V13.7009Z" fill="var(--fill-0, black)"/>
<path d="M52.1074 1.03197C51.8211 2.00954 51.5446 2.97724 51.2582 3.95481C50.9719 4.93238 50.6954 5.90008 50.409 6.87765L50.7053 6.95664C50.9916 5.97907 51.2681 5.01137 51.5545 4.03381C51.8408 3.05624 52.1173 2.08854 52.4037 1.11097L52.1074 1.03197ZM50.4189 6.87765C50.3992 6.95664 50.4387 7.03564 50.5176 7.06526C50.5966 7.08501 50.6756 7.04551 50.7053 6.96652L50.409 6.88752L50.4189 6.87765ZM52.4037 1.12084C52.4234 1.04185 52.3839 0.962854 52.3049 0.93323C52.2259 0.913481 52.1469 0.952979 52.1173 1.03197L52.4135 1.11097L52.4037 1.12084Z" fill="var(--fill-0, black)"/>
<path d="M40.9888 6.84802C40.7025 7.81572 40.426 8.77354 40.1396 9.74123C39.8532 10.7089 39.5768 11.6667 39.2904 12.6344L39.5866 12.7134C39.873 11.7457 40.1495 10.7879 40.4358 9.82023C40.7222 8.85253 40.9987 7.89471 41.285 6.92702L40.9888 6.84802ZM39.3003 12.6344C39.2805 12.7134 39.32 12.7924 39.399 12.8221C39.478 12.8418 39.557 12.8023 39.5866 12.7233L39.2904 12.6443L39.3003 12.6344ZM41.285 6.92702C41.3048 6.84802 41.2653 6.76903 41.1863 6.7394C41.1073 6.71965 41.0283 6.75915 40.9987 6.83815L41.2949 6.91714L41.285 6.92702Z" fill="var(--fill-0, black)"/>
</g>
</svg>